<svg width="67" height="23" fill="none" xmlns="http://www.w3.org/2000/svg"><path fill-rule="evenodd" clip-rule="evenodd" d="M0 .88v3.243h6.992c.213 0 .385.172.385.385v18.125c0 .136.111.247.247.247h2.751c.137 0 .248-.11.248-.247V4.508c0-.213.172-.385.385-.385H18V.88H0zM59.367.88c.25 0 .47.16.548.398L67 22.88h-3.172a.322.322 0 01-.306-.223l-6.031-18.39a.21.21 0 00-.2-.144h-.583a.21.21 0 00-.2.144l-6.03 18.39a.322.322 0 01-.306.223H47l7.084-21.602a.578.578 0 01.549-.398h4.734zM28.431 4.12c.052 0 .1.028.126.073l10.542 18.464a.444.444 0 00.386.223H43L32.413 4.342a.149.149 0 01.13-.222l10.199.003V.88H25.25c-.138 0-.25.11-.25.247v21.506c0 .136.112.247.25.247h2.788c.138 0 .25-.11.25-.247V4.263c0-.08.064-.143.143-.143z" fill="#3F3F48"/></svg>